<svg id="Layer_1" data-name="Layer 1" xmlns="http://www.w3.org/2000/svg" xmlns:xlink="http://www.w3.org/1999/xlink" viewBox="0 0 944.99 206.89"><defs><style>.cls-1{fill:url(#linear-gradient);}.cls-2{fill:url(#linear-gradient-2);}.cls-3{fill:url(#linear-gradient-3);}.cls-4{fill:url(#linear-gradient-4);}.cls-5{fill:url(#linear-gradient-5);}.cls-6{fill:url(#linear-gradient-6);}.cls-7{fill:url(#linear-gradient-7);}.cls-8{fill:url(#linear-gradient-8);}.cls-9{font-size:99px;font-family:Raleway-Bold, Raleway;font-weight:700;letter-spacing:0.01em;}.cls-11,.cls-9{fill:#487826;}.cls-10{letter-spacing:-0.01em;}.cls-11{font-size:34px;font-family:LibreBaskerville-Regular, Libre Baskerville;letter-spacing:0.25em;}.cls-12{letter-spacing:0.24em;}.cls-13{letter-spacing:0.18em;}</style><linearGradient id="linear-gradient" x1="170.94" y1="459.2" x2="216.81" y2="349.78" gradientUnits="userSpaceOnUse"><stop offset="0" stop-color="#0cf"/><stop offset="1" stop-color="#006"/></linearGradient><linearGradient id="linear-gradient-2" x1="209.52" y1="703.83" x2="219.92" y2="560.84" gradientTransform="matrix(0.37, -0.93, -0.93, -0.37, 642.35, 881.04)" gradientUnits="userSpaceOnUse"><stop offset="0" stop-color="#487826"/><stop offset="1" stop-color="#acd339"/></linearGradient><linearGradient id="linear-gradient-3" x1="1152.17" y1="638.82" x2="1163.88" y2="477.72" gradientTransform="matrix(-0.89, -0.45, -0.45, 0.89, 1489.99, 411.43)" xlink:href="#linear-gradient"/><linearGradient id="linear-gradient-4" x1="1107.23" y1="664.29" x2="1117.63" y2="521.3" gradientTransform="matrix(-0.89, -0.45, -0.45, 0.89, 1489.99, 411.43)" gradientUnits="userSpaceOnUse"><stop offset="0" stop-color="#006"/><stop offset="1" stop-color="#0cf"/></linearGradient><linearGradient id="linear-gradient-5" x1="374.26" y1="678.26" x2="210.61" y2="708.82" xlink:href="#linear-gradient-2"/><linearGradient id="linear-gradient-6" x1="371.52" y1="663.56" x2="207.87" y2="694.11" xlink:href="#linear-gradient-2"/><linearGradient id="linear-gradient-7" x1="370.08" y1="655.88" x2="206.43" y2="686.43" xlink:href="#linear-gradient-2"/><linearGradient id="linear-gradient-8" x1="369.26" y1="651.49" x2="205.61" y2="682.04" xlink:href="#linear-gradient-2"/></defs><title>HORIZONTAL LIGHT BG - WELLSERVE COOP</title><path class="cls-1" d="M180.29,464.75l-16.2-54.38s23.62,2.89,37.9-6.75,27.35-17.36,32.59-52.27c.23-1.53,7.52,50.3-56.51,67l17,48.53Z" transform="translate(-72.2 -285.94)"/><path id="LEFT_BOTTOM" data-name="LEFT BOTTOM" class="cls-2" d="M101.68,400.72a40.88,40.88,0,0,0-12.17,17c-6.28,15.8,5,36.21,12.74,44.34.37.38.75.74,1.09,1.07a101.26,101.26,0,0,0,16.37,13.06,103.77,103.77,0,0,0,99.34,7.22c-13.78,4-31,5-51.19-1.43C108.7,463.07,102,404.35,101.7,400.89c0-.06,0-.1,0-.12A.07.07,0,0,1,101.68,400.72Z" transform="translate(-72.2 -285.94)"/><path id="Right_-_Top_" data-name="Right - Top&gt;" class="cls-3" d="M248.88,405.79a74.58,74.58,0,0,1-6.36,17.62,75.38,75.38,0,0,1-32.1,32.68,76.53,76.53,0,0,1-30.36,8.66c3.48,0,62.55-1.32,86.79-58.51,8.27-19.55,8.83-36.76,6.07-50.85a103.8,103.8,0,0,0-97.54-69.45c20.58,6,89.3,37,74.31,115.83-.09.52-.18,1-.29,1.53C249.23,404.12,249.06,405,248.88,405.79Z" transform="translate(-72.2 -285.94)"/><path id="Right_-_Bottom" data-name="Right - Bottom" class="cls-4" d="M179.88,464.76a41.09,41.09,0,0,0,15.86,13.67c15.16,7.69,36.52-1.67,45.31-8.67.42-.33.81-.67,1.17-1a104.3,104.3,0,0,0,25.31-32.12,103.37,103.37,0,0,0,5.39-81.27c2.76,14.09,2.2,31.3-6.07,50.85-24.24,57.19-83.31,58.51-86.79,58.51-.06,0-.1,0-.13,0Z" transform="translate(-72.2 -285.94)"/><g id="LEFT_HAND" data-name="LEFT HAND"><path class="cls-5" d="M167.92,292a4.68,4.68,0,0,0-5.2-4.54c-36.65,3.94-68.47,26.37-83.14,63.24a103.51,103.51,0,0,0,3.94,85.42c-3-6.52-2.36-16.21.82-24.21,5.23-13.15,25.25-21.64,32.12-38.91s9.23-25.69,10.92-29.94c1.48-3.74,7.24-14.35,16-18.59a1.58,1.58,0,0,0-.38-3c-7.73-1.65-21.77,1.49-33.22,25.26,0,0-2.29-5,3.67-20,5.44-13.67,23-27.48,50.29-30.07a4.63,4.63,0,0,0,4.16-4.72Z" transform="translate(-72.2 -285.94)"/><path class="cls-6" d="M169,298.89c-24.37-.24-42.94,20.39-42.94,20.39,15.21-8.21,32.45-11.06,43.11-11.65a4.35,4.35,0,0,0,4.11-4.69h0A4.38,4.38,0,0,0,169,298.89Z" transform="translate(-72.2 -285.94)"/><path class="cls-7" d="M137.73,316.55s18.62-8.66,31.54-5.49c7.26,1.78,5.68,9.75-1.56,8.4S150.24,314.82,137.73,316.55Z" transform="translate(-72.2 -285.94)"/><path class="cls-8" d="M146.15,318.42s15.49.05,21,3.63c3.77,2.44,1.24,9-4.32,5.28S152.66,320.52,146.15,318.42Z" transform="translate(-72.2 -285.94)"/></g><text class="cls-9" transform="translate(240.89 118.05)">WELLSE<tspan class="cls-10" x="405.5" y="0">R</tspan><tspan x="469.95" y="0">VE</tspan></text><text class="cls-11" transform="translate(355.82 159.63)">CO<tspan class="cls-12" x="76.43" y="0">O</tspan><tspan x="116.65" y="0">PER</tspan><tspan class="cls-13" x="216.99" y="0">A</tspan><tspan x="249.25" y="0">TIVE</tspan></text></svg>